<mxfile host="Electron" modified="2023-05-08T21:07:44.392Z" agent="Mozilla/5.0 (Windows NT 10.0; Win64; x64) AppleWebKit/537.36 (KHTML, like Gecko) draw.io/21.2.8 Chrome/112.0.5615.165 Electron/24.2.0 Safari/537.36" etag="IHLvpQJWrvSI0-WXDFhk" version="21.2.8" type="device">
  <diagram id="C5RBs43oDa-KdzZeNtuy" name="Page-1">
    <mxGraphModel dx="1182" dy="690" grid="1" gridSize="10" guides="1" tooltips="1" connect="1" arrows="1" fold="1" page="1" pageScale="1" pageWidth="1169" pageHeight="827" math="0" shadow="0">
      <root>
        <mxCell id="WIyWlLk6GJQsqaUBKTNV-0" />
        <mxCell id="WIyWlLk6GJQsqaUBKTNV-1" parent="WIyWlLk6GJQsqaUBKTNV-0" />
        <mxCell id="WIyWlLk6GJQsqaUBKTNV-3" value="poiner = nextmenu" style="rounded=1;whiteSpace=wrap;html=1;fontSize=12;glass=0;strokeWidth=1;shadow=0;" parent="WIyWlLk6GJQsqaUBKTNV-1" vertex="1">
          <mxGeometry x="525" y="300" width="140" height="40" as="geometry" />
        </mxCell>
        <mxCell id="WIyWlLk6GJQsqaUBKTNV-5" value="Not 0" style="edgeStyle=orthogonalEdgeStyle;rounded=0;html=1;jettySize=auto;orthogonalLoop=1;fontSize=11;endArrow=block;endFill=0;endSize=8;strokeWidth=1;shadow=0;labelBackgroundColor=none;" parent="WIyWlLk6GJQsqaUBKTNV-1" source="WIyWlLk6GJQsqaUBKTNV-6" edge="1">
          <mxGeometry x="0.097" y="10" relative="1" as="geometry">
            <mxPoint as="offset" />
            <mxPoint x="755" y="540" as="targetPoint" />
          </mxGeometry>
        </mxCell>
        <mxCell id="WIyWlLk6GJQsqaUBKTNV-6" value="Pressed number?" style="rhombus;whiteSpace=wrap;html=1;shadow=0;fontFamily=Helvetica;fontSize=12;align=center;strokeWidth=1;spacing=6;spacingTop=-4;" parent="WIyWlLk6GJQsqaUBKTNV-1" vertex="1">
          <mxGeometry x="545" y="500" width="100" height="80" as="geometry" />
        </mxCell>
        <mxCell id="vnxVRoS01RciZzyY2S9s-0" value="&lt;font style=&quot;font-size: 16px;&quot;&gt;Main&lt;/font&gt;" style="rounded=0;whiteSpace=wrap;html=1;" parent="WIyWlLk6GJQsqaUBKTNV-1" vertex="1">
          <mxGeometry x="535" y="170" width="120" height="20" as="geometry" />
        </mxCell>
        <mxCell id="vnxVRoS01RciZzyY2S9s-2" value="pointer-&amp;gt;Loop()" style="rounded=1;whiteSpace=wrap;html=1;fontSize=12;glass=0;strokeWidth=1;shadow=0;" parent="WIyWlLk6GJQsqaUBKTNV-1" vertex="1">
          <mxGeometry x="525" y="360" width="140" height="40" as="geometry" />
        </mxCell>
        <mxCell id="vnxVRoS01RciZzyY2S9s-4" value="MainMenuDisplay()" style="rounded=1;whiteSpace=wrap;html=1;fontSize=12;glass=0;strokeWidth=1;shadow=0;" parent="WIyWlLk6GJQsqaUBKTNV-1" vertex="1">
          <mxGeometry x="525" y="420" width="140" height="40" as="geometry" />
        </mxCell>
        <mxCell id="vnxVRoS01RciZzyY2S9s-5" value="0" style="rounded=0;html=1;jettySize=auto;orthogonalLoop=1;fontSize=11;endArrow=block;endFill=0;endSize=8;strokeWidth=1;shadow=0;labelBackgroundColor=none;edgeStyle=orthogonalEdgeStyle;exitX=0;exitY=0.5;exitDx=0;exitDy=0;" parent="WIyWlLk6GJQsqaUBKTNV-1" source="WIyWlLk6GJQsqaUBKTNV-6" edge="1">
          <mxGeometry x="0.0001" y="-10" relative="1" as="geometry">
            <mxPoint as="offset" />
            <mxPoint x="524.52" y="540" as="sourcePoint" />
            <mxPoint x="465" y="540" as="targetPoint" />
            <Array as="points">
              <mxPoint x="525" y="540" />
            </Array>
          </mxGeometry>
        </mxCell>
        <mxCell id="vnxVRoS01RciZzyY2S9s-6" value="nextmenu = programmer&#39;s choice&lt;br&gt;Exit()" style="rounded=1;whiteSpace=wrap;html=1;fontSize=12;glass=0;strokeWidth=1;shadow=0;" parent="WIyWlLk6GJQsqaUBKTNV-1" vertex="1">
          <mxGeometry x="275" y="520" width="190" height="40" as="geometry" />
        </mxCell>
        <mxCell id="vnxVRoS01RciZzyY2S9s-8" value="" style="rounded=0;html=1;jettySize=auto;orthogonalLoop=1;fontSize=11;endArrow=block;endFill=0;endSize=8;strokeWidth=1;shadow=0;labelBackgroundColor=none;edgeStyle=orthogonalEdgeStyle;exitX=0.5;exitY=0;exitDx=0;exitDy=0;entryX=0;entryY=0.5;entryDx=0;entryDy=0;" parent="WIyWlLk6GJQsqaUBKTNV-1" source="vnxVRoS01RciZzyY2S9s-6" target="WIyWlLk6GJQsqaUBKTNV-3" edge="1">
          <mxGeometry x="0.0001" y="-10" relative="1" as="geometry">
            <mxPoint as="offset" />
            <mxPoint x="425" y="480" as="sourcePoint" />
            <mxPoint x="345" y="480" as="targetPoint" />
            <Array as="points">
              <mxPoint x="370" y="320" />
            </Array>
          </mxGeometry>
        </mxCell>
        <mxCell id="vnxVRoS01RciZzyY2S9s-10" value="If pressed number &amp;lt;= menupoints counter?" style="rhombus;whiteSpace=wrap;html=1;shadow=0;fontFamily=Helvetica;fontSize=12;align=center;strokeWidth=1;spacing=6;spacingTop=-4;" parent="WIyWlLk6GJQsqaUBKTNV-1" vertex="1">
          <mxGeometry x="755" y="480" width="170" height="120" as="geometry" />
        </mxCell>
        <mxCell id="vnxVRoS01RciZzyY2S9s-12" value="Yes" style="edgeStyle=orthogonalEdgeStyle;rounded=0;html=1;jettySize=auto;orthogonalLoop=1;fontSize=11;endArrow=block;endFill=0;endSize=8;strokeWidth=1;shadow=0;labelBackgroundColor=none;" parent="WIyWlLk6GJQsqaUBKTNV-1" edge="1">
          <mxGeometry x="0.097" y="10" relative="1" as="geometry">
            <mxPoint as="offset" />
            <mxPoint x="925" y="539.76" as="sourcePoint" />
            <mxPoint x="995" y="560" as="targetPoint" />
          </mxGeometry>
        </mxCell>
        <mxCell id="vnxVRoS01RciZzyY2S9s-13" value="DoSubmenuTask()" style="rounded=1;whiteSpace=wrap;html=1;fontSize=12;glass=0;strokeWidth=1;shadow=0;" parent="WIyWlLk6GJQsqaUBKTNV-1" vertex="1">
          <mxGeometry x="925" y="560" width="140" height="40" as="geometry" />
        </mxCell>
        <mxCell id="vnxVRoS01RciZzyY2S9s-14" value="nextmenu = nullptr?" style="rhombus;whiteSpace=wrap;html=1;shadow=0;fontFamily=Helvetica;fontSize=12;align=center;strokeWidth=1;spacing=6;spacingTop=-4;" parent="WIyWlLk6GJQsqaUBKTNV-1" vertex="1">
          <mxGeometry x="320" y="360" width="100" height="80" as="geometry" />
        </mxCell>
        <mxCell id="vnxVRoS01RciZzyY2S9s-15" value="No" style="text;html=1;align=center;verticalAlign=middle;resizable=0;points=[];autosize=1;strokeColor=none;fillColor=none;" parent="WIyWlLk6GJQsqaUBKTNV-1" vertex="1">
          <mxGeometry x="435" y="298" width="40" height="30" as="geometry" />
        </mxCell>
        <mxCell id="vnxVRoS01RciZzyY2S9s-16" value="Yes" style="text;html=1;align=center;verticalAlign=middle;resizable=0;points=[];autosize=1;strokeColor=none;fillColor=none;" parent="WIyWlLk6GJQsqaUBKTNV-1" vertex="1">
          <mxGeometry x="265" y="370" width="40" height="30" as="geometry" />
        </mxCell>
        <mxCell id="vnxVRoS01RciZzyY2S9s-17" value="" style="rounded=0;html=1;jettySize=auto;orthogonalLoop=1;fontSize=11;endArrow=block;endFill=0;endSize=8;strokeWidth=1;shadow=0;labelBackgroundColor=none;edgeStyle=orthogonalEdgeStyle;exitX=0;exitY=0.5;exitDx=0;exitDy=0;entryX=1;entryY=0.5;entryDx=0;entryDy=0;" parent="WIyWlLk6GJQsqaUBKTNV-1" target="vnxVRoS01RciZzyY2S9s-18" edge="1">
          <mxGeometry x="0.0001" y="-10" relative="1" as="geometry">
            <mxPoint as="offset" />
            <mxPoint x="320" y="400" as="sourcePoint" />
            <mxPoint x="265" y="410" as="targetPoint" />
            <Array as="points" />
          </mxGeometry>
        </mxCell>
        <mxCell id="vnxVRoS01RciZzyY2S9s-18" value="Exit" style="rounded=1;whiteSpace=wrap;html=1;fontSize=12;glass=0;strokeWidth=1;shadow=0;" parent="WIyWlLk6GJQsqaUBKTNV-1" vertex="1">
          <mxGeometry x="105" y="380" width="140" height="40" as="geometry" />
        </mxCell>
        <mxCell id="vnxVRoS01RciZzyY2S9s-19" value="" style="rounded=0;html=1;jettySize=auto;orthogonalLoop=1;fontSize=11;endArrow=block;endFill=0;endSize=8;strokeWidth=1;shadow=0;labelBackgroundColor=none;edgeStyle=orthogonalEdgeStyle;" parent="WIyWlLk6GJQsqaUBKTNV-1" edge="1">
          <mxGeometry relative="1" as="geometry">
            <mxPoint x="594.71" y="190" as="sourcePoint" />
            <mxPoint x="594.71" y="240" as="targetPoint" />
          </mxGeometry>
        </mxCell>
        <mxCell id="vnxVRoS01RciZzyY2S9s-20" value="nextmenu = AccountMenu" style="rounded=1;whiteSpace=wrap;html=1;fontSize=12;glass=0;strokeWidth=1;shadow=0;" parent="WIyWlLk6GJQsqaUBKTNV-1" vertex="1">
          <mxGeometry x="525" y="240" width="140" height="40" as="geometry" />
        </mxCell>
        <mxCell id="vnxVRoS01RciZzyY2S9s-21" value="" style="rounded=0;html=1;jettySize=auto;orthogonalLoop=1;fontSize=11;endArrow=block;endFill=0;endSize=8;strokeWidth=1;shadow=0;labelBackgroundColor=none;edgeStyle=orthogonalEdgeStyle;exitX=0.5;exitY=1;exitDx=0;exitDy=0;" parent="WIyWlLk6GJQsqaUBKTNV-1" source="vnxVRoS01RciZzyY2S9s-20" edge="1">
          <mxGeometry relative="1" as="geometry">
            <mxPoint x="575" y="290" as="sourcePoint" />
            <mxPoint x="595" y="300" as="targetPoint" />
          </mxGeometry>
        </mxCell>
        <mxCell id="vnxVRoS01RciZzyY2S9s-22" value="" style="rounded=0;html=1;jettySize=auto;orthogonalLoop=1;fontSize=11;endArrow=block;endFill=0;endSize=8;strokeWidth=1;shadow=0;labelBackgroundColor=none;edgeStyle=orthogonalEdgeStyle;entryX=0.505;entryY=0.067;entryDx=0;entryDy=0;entryPerimeter=0;exitX=0.5;exitY=1;exitDx=0;exitDy=0;" parent="WIyWlLk6GJQsqaUBKTNV-1" source="WIyWlLk6GJQsqaUBKTNV-3" target="vnxVRoS01RciZzyY2S9s-2" edge="1">
          <mxGeometry relative="1" as="geometry">
            <mxPoint x="575" y="350" as="sourcePoint" />
            <mxPoint x="605" y="310" as="targetPoint" />
          </mxGeometry>
        </mxCell>
        <mxCell id="vnxVRoS01RciZzyY2S9s-23" value="" style="rounded=0;html=1;jettySize=auto;orthogonalLoop=1;fontSize=11;endArrow=block;endFill=0;endSize=8;strokeWidth=1;shadow=0;labelBackgroundColor=none;edgeStyle=orthogonalEdgeStyle;entryX=0.5;entryY=0;entryDx=0;entryDy=0;exitX=0.5;exitY=1;exitDx=0;exitDy=0;" parent="WIyWlLk6GJQsqaUBKTNV-1" source="vnxVRoS01RciZzyY2S9s-2" target="vnxVRoS01RciZzyY2S9s-4" edge="1">
          <mxGeometry relative="1" as="geometry">
            <mxPoint x="585" y="410" as="sourcePoint" />
            <mxPoint x="595.5" y="423" as="targetPoint" />
          </mxGeometry>
        </mxCell>
        <mxCell id="vnxVRoS01RciZzyY2S9s-24" value="" style="rounded=0;html=1;jettySize=auto;orthogonalLoop=1;fontSize=11;endArrow=block;endFill=0;endSize=8;strokeWidth=1;shadow=0;labelBackgroundColor=none;edgeStyle=orthogonalEdgeStyle;entryX=0.5;entryY=0;entryDx=0;entryDy=0;exitX=0.5;exitY=1;exitDx=0;exitDy=0;" parent="WIyWlLk6GJQsqaUBKTNV-1" source="vnxVRoS01RciZzyY2S9s-4" target="WIyWlLk6GJQsqaUBKTNV-6" edge="1">
          <mxGeometry relative="1" as="geometry">
            <mxPoint x="605" y="410" as="sourcePoint" />
            <mxPoint x="605" y="430" as="targetPoint" />
          </mxGeometry>
        </mxCell>
        <mxCell id="Rg8yKbrEA24cvpBL7XvP-0" value="No" style="edgeStyle=orthogonalEdgeStyle;rounded=0;html=1;jettySize=auto;orthogonalLoop=1;fontSize=11;endArrow=block;endFill=0;endSize=8;strokeWidth=1;shadow=0;labelBackgroundColor=none;exitX=0.5;exitY=1;exitDx=0;exitDy=0;entryX=0.5;entryY=1;entryDx=0;entryDy=0;" edge="1" parent="WIyWlLk6GJQsqaUBKTNV-1" source="vnxVRoS01RciZzyY2S9s-10" target="WIyWlLk6GJQsqaUBKTNV-6">
          <mxGeometry x="0.097" y="10" relative="1" as="geometry">
            <mxPoint as="offset" />
            <mxPoint x="765" y="640" as="targetPoint" />
            <mxPoint x="840" y="640" as="sourcePoint" />
          </mxGeometry>
        </mxCell>
      </root>
    </mxGraphModel>
  </diagram>
</mxfile>
